# xmcd
#
# Track frame offsets:
#	150
#	8357
#	15382
#	25067
#	38237
#	49282
#	60032
#	71382
#	81555
#	93127
#	103460
#	112495
#	123762
#	134947
#	147812
#	162425
#
# Disc length: 2215 seconds
#
# Revision: 0
# Processed by: cddbd v1.5.2PL0 Copyright (c) Steve Scherf et al.
# Submitted via: EasyCDDAExtractor 16.0.6.1
#
DISCID=d508a510
DTITLE=Καγιαλόγλου Αλίκη - Αέρας φυσάει τα τραγούδια
DYEAR=1994
DGENRE=Ελαφρά
TTITLE0=Απόψε την κιθάρα μου [κεφαλλονίτικη αριέττα]
TTITLE1=Μέσα στη μέση του γιαλού [κεφαλλονίτικη αριέττα]
TTITLE2=Λαλούν τ' αηδόνια [παλιά καντάδα]
TTITLE3=Ξανθούλα [Δ. Σολωμός-Ν. Μάτζαρος]
TTITLE4=Κελαηδήστε ωραία μου πουλάκια [παλιά καντάδα]
TTITLE5=Αμυγδαλιά [παλιά καντάδα, στ. Γ. Δροσίνης]
TTITLE6=Στης εκκλησιάς τα σκαλοπάτια [παλιά καντάδα]
TTITLE7=Στης Πλάκας τις ανηφοριές [παλιά καντάδα, στ. Τ. Μωραϊτίνης]
TTITLE8=Μοδιστρούλα [Ν. Χατζηαποστόλου]
TTITLE9=Αχ! Ξελογιάστρα [Θεόφρ. Σακελλαρίδης]
TTITLE10=Θέλω ν' αφήσω [κεφαλλονίτικη αριέττα]
TTITLE11=Μιά μαργαρίτα έκοψα [Ν. Χατζηαποστόλου]
TTITLE12=Μού παρήγγειλε τ' αηδόνι [παλιά καντάδα]
TTITLE13=Τον παλιό εκείνο τον καιρό [Θεόφρ. Σακελλαρίδης]
TTITLE14=Γιαλό-γιαλό [παλιά καντάδα]
TTITLE15=Αψηλό μου κυπαρίσσι [κεφαλλονίτικη αριέττα]
EXTD=
EXTT0=
EXTT1=
EXTT2=
EXTT3=
EXTT4=
EXTT5=
EXTT6=
EXTT7=
EXTT8=
EXTT9=
EXTT10=
EXTT11=
EXTT12=
EXTT13=
EXTT14=
EXTT15=
PLAYORDER=
